<svg width="178" height="24" viewBox="0 0 178 24" fill="none" xmlns="http://www.w3.org/2000/svg">
<path d="M17.5996 0C19.8398 0 20.9608 -0.000427114 21.8164 0.435547C22.5689 0.819016 23.181 1.43109 23.5645 2.18359C24.0004 3.03924 24 4.16018 24 6.40039V17.5996C24 19.8398 24.0004 20.9608 23.5645 21.8164C23.181 22.5689 22.5689 23.181 21.8164 23.5645C20.9608 24.0004 19.8398 24 17.5996 24H6.40039C4.16018 24 3.03924 24.0004 2.18359 23.5645C1.43109 23.181 0.819016 22.5689 0.435547 21.8164C-0.000427114 20.9608 0 19.8398 0 17.5996V6.40039C0 4.16018 -0.000427114 3.03924 0.435547 2.18359C0.819016 1.43109 1.43109 0.819016 2.18359 0.435547C3.03924 -0.000427114 4.16018 0 6.40039 0H17.5996ZM7.92578 5.49512C7.67844 5.61191 2.99953 6.80995 7.92676 11.4834L5.56934 15.9951C6.73101 19.03 12.6276 16.0045 12.542 16.1611L9.13672 19.0312C8.97437 19.3149 9.27305 19.6395 9.56738 19.499L19.1084 14.9463C19.3504 14.8308 19.3639 14.4897 19.1318 14.3555L15.2627 12.123C15.1036 12.0313 15.0483 11.8277 15.1396 11.668L17.9219 6.80762C18.0841 6.52399 17.7845 6.19942 17.4902 6.33984L7.92578 5.49512Z" fill="#013941"/>
<path d="M34.5717 20.1568H30.4292V5.3828H34.8361L38.9346 10.9175L41.094 14.3134H41.3804L41.1821 11.0939V5.3828H45.3246V20.1568H40.9177L36.5548 14.4677L34.6819 11.557H34.3954L34.5717 14.3795V20.1568Z" fill="#013941"/>
<path d="M54.6084 20.3773C49.4743 20.3773 46.4336 17.3784 46.4336 12.7698C46.4336 8.1612 49.4743 5.16229 54.6084 5.16229C59.8747 5.16229 62.8714 8.1612 62.8714 12.7698C62.8714 17.3784 59.8747 20.3773 54.6084 20.3773ZM54.6084 16.4082C57.6051 16.4082 58.4645 15.7026 58.4645 12.7698C58.4645 9.83706 57.6051 9.13143 54.6084 9.13143C51.6117 9.13143 50.8405 9.83706 50.8405 12.7698C50.8405 15.7026 51.6117 16.4082 54.6084 16.4082Z" fill="#013941"/>
<path d="M74.9713 20.1568H69.022L63.0947 5.3828H68.0965L71.9085 15.9672H72.195L75.9188 5.3828H80.8986L74.9713 20.1568Z" fill="#013941"/>
<path d="M85.1091 20.1568H80.4598L86.8278 5.3828H92.7551L99.1452 20.1568H94.3857L93.2619 17.4225H86.2549L85.1091 20.1568ZM88.6787 11.6232L87.8194 13.6959H91.7416L90.8822 11.6232L89.9127 9.13143H89.6262L88.6787 11.6232Z" fill="#013941"/>
<path d="M107.521 20.3773C102.387 20.3773 99.3683 17.3784 99.3683 12.7698C99.3683 8.1612 102.387 5.16229 107.521 5.16229C112.479 5.16229 115.454 7.52172 115.454 11.4688V11.8437H110.826V11.4688C110.826 9.79295 110.033 9.13143 107.587 9.13143C104.59 9.13143 103.775 9.83706 103.775 12.7698C103.775 15.7026 104.59 16.4082 107.587 16.4082C110.033 16.4082 110.826 15.7467 110.826 14.0708V13.6959H115.454V14.0708C115.454 18.0179 112.479 20.3773 107.521 20.3773Z" fill="#013941"/>
<path d="M120.687 20.1568H116.545V5.3828H125.16C129.061 5.3828 131.11 7.01456 131.11 9.90321C131.11 12.2406 129.942 13.6298 127.122 13.9826V14.2031C128.642 14.6 129.127 15.3277 129.678 16.4523L131.506 20.1568H126.725L124.962 16.5405C124.433 15.438 123.993 15.1292 122.384 15.1292H120.687V20.1568ZM120.687 9.10938V12.0421H125.116C126.328 12.0421 126.769 11.8216 126.769 10.5647C126.769 9.39604 126.328 9.10938 125.116 9.10938H120.687Z" fill="#013941"/>
<path d="M139.615 20.3773C134.459 20.3773 132.079 17.8856 132.079 13.9605V5.3828H136.222V13.6298C136.222 15.7246 136.816 16.3641 139.615 16.3641C142.413 16.3641 143.008 15.7246 143.008 13.6298V5.3828H147.151V13.9605C147.151 17.8856 144.771 20.3773 139.615 20.3773Z" fill="#013941"/>
<path d="M155.553 20.3773C151.036 20.3773 148.282 18.7676 148.282 15.019V14.8867H152.424V15.3497C152.424 16.342 152.777 16.6066 155.553 16.6066C158.065 16.6066 158.329 16.4082 158.329 15.7467C158.329 15.2174 158.043 14.9969 156.831 14.8426L152.204 14.2252C149.45 13.8503 148.061 12.3729 148.061 9.99141C148.061 7.63198 149.89 5.16229 155.223 5.16229C159.916 5.16229 162.163 7.21301 162.163 10.5206V10.6529H158.021V10.3222C158.021 9.26374 157.558 8.91092 154.782 8.91092C152.667 8.91092 152.204 9.19758 152.204 9.83706C152.204 10.3001 152.468 10.5206 153.262 10.6309L157.889 11.3145C161.502 11.8437 162.472 13.6959 162.472 15.5923C162.472 18.1281 160.533 20.3773 155.553 20.3773Z" fill="#013941"/>
<path d="M172.489 20.1568H168.346V9.10938H163.124V5.3828H177.689V9.10938H172.489V20.1568Z" fill="#013941"/>
</svg>
